<svg xmlns="http://www.w3.org/2000/svg" width="452.06" height="83.31" viewBox="0 0 452.06 83.31"><title>Untitled-1</title><text transform="translate(74.69 62.77)" style="font-size:61.523075103759766px;fill:#231f20;font-family:Source Serif Pro"><tspan style="letter-spacing:-1px">S</tspan><tspan x="30.27" y="0">y</tspan><tspan x="61.52" y="0">m</tspan><tspan x="116.09" y="0">p</tspan><tspan x="151.41" y="0">tom Log</tspan></text><polygon points="67.35 11.63 67.35 78.51 1.23 78.51 1.23 1.23 51.22 1.23 67.35 11.63" style="fill:none;stroke:#000;stroke-linejoin:round;stroke-width:2.4514722601643406px"/><path d="M93.74,189.43c-5.39-18.9-15.73-26-17.75-14.88,0,0-.32,2.31-0.77,5.45l-2.29-1.66V164.56a1.94,1.94,0,1,0-3.87,0v13.72l-3.17,2c-0.36-3-.63-5.43-0.74-6.62-0.32-3.51-3.52-5.14-5-4.58-11.69,4.47-15.64,27.54-13.62,35.2,1.13,4.29,3.74,5.21,10.86,2.76s12-5.45,11.06-9.78c-0.63-2.81-1.38-7.91-2-12.72l4.5-2.9,3.67,2.65c-0.77,5.33-1.63,11.1-1.9,12.33-1.17,5.21,1.7,6.59,10.1,9.78,10.53,4,15.95.51,10.95-17" transform="translate(-36.53 -145.65)" style="fill:#cc6060"/></svg>